<?xml version="1.0" encoding="UTF-8" standalone="no"?>
<!DOCTYPE svg PUBLIC "-//W3C//DTD SVG 1.1//EN" "http://www.w3.org/Graphics/SVG/1.1/DTD/svg11.dtd">
<svg width="100%" height="100%" viewBox="0 0 150 60" version="1.1" xmlns="http://www.w3.org/2000/svg" xmlns:xlink="http://www.w3.org/1999/xlink" xml:space="preserve" xmlns:serif="http://www.serif.com/" style="fill-rule:evenodd;clip-rule:evenodd;stroke-linejoin:round;stroke-miterlimit:2;">
    <path d="M63.868,8.04C66.34,10.512 67.576,13.632 67.576,17.4C67.576,21.168 66.34,24.3 63.868,26.796C61.42,29.268 58.336,30.504 54.616,30.504C50.896,30.504 47.8,29.268 45.328,26.796C42.88,24.3 41.656,21.168 41.656,17.4C41.656,13.632 42.88,10.512 45.328,8.04C47.8,5.544 50.896,4.296 54.616,4.296C58.336,4.296 61.42,5.544 63.868,8.04ZM48.784,23.772C50.32,25.332 52.264,26.112 54.616,26.112C56.968,26.112 58.912,25.332 60.448,23.772C61.984,22.188 62.752,20.064 62.752,17.4C62.752,14.736 61.984,12.624 60.448,11.064C58.912,9.48 56.968,8.688 54.616,8.688C52.264,8.688 50.32,9.48 48.784,11.064C47.248,12.624 46.48,14.736 46.48,17.4C46.48,20.064 47.248,22.188 48.784,23.772ZM78.072,4.8L82.608,4.8L92.796,30L87.72,30L85.2,23.412L75.48,23.412L72.96,30L67.884,30L78.072,4.8ZM79.403,13.116L77.1,19.164L83.58,19.164L81.275,13.116C80.964,12.3 80.652,11.388 80.34,10.38L79.403,13.116ZM99.76,11.1C99.76,12.06 100.24,12.852 101.2,13.476C102.16,14.076 103.708,14.592 105.844,15.024C108.628,15.6 110.692,16.512 112.036,17.76C113.404,19.008 114.088,20.676 114.088,22.764C114.088,24.9 113.224,26.724 111.496,28.236C109.792,29.748 107.524,30.504 104.692,30.504C101.692,30.504 99.304,29.772 97.528,28.308C95.752,26.844 94.612,24.888 94.108,22.44L98.284,20.316C99.028,24.324 101.152,26.328 104.656,26.328C106.072,26.328 107.2,26.016 108.04,25.392C108.904,24.768 109.336,23.952 109.336,22.944C109.336,21.84 108.832,20.976 107.824,20.352C106.84,19.728 105.268,19.2 103.108,18.768C100.684,18.288 98.764,17.424 97.348,16.176C95.932,14.904 95.224,13.248 95.224,11.208C95.224,9.12 96.04,7.452 97.672,6.204C99.304,4.932 101.44,4.296 104.08,4.296C108.88,4.296 112.072,6.456 113.656,10.776L109.912,12.936C108.904,9.96 106.924,8.472 103.972,8.472C102.772,8.472 101.764,8.7 100.948,9.156C100.156,9.588 99.76,10.236 99.76,11.1ZM118.144,4.8L122.896,4.8L122.896,30L118.144,30L118.144,4.8ZM132.314,11.1C132.314,12.06 132.794,12.852 133.754,13.476C134.714,14.076 136.262,14.592 138.398,15.024C141.182,15.6 143.246,16.512 144.59,17.76C145.958,19.008 146.642,20.676 146.642,22.764C146.642,24.9 145.778,26.724 144.05,28.236C142.346,29.748 140.078,30.504 137.246,30.504C134.246,30.504 131.858,29.772 130.082,28.308C128.306,26.844 127.166,24.888 126.662,22.44L130.838,20.316C131.582,24.324 133.706,26.328 137.21,26.328C138.626,26.328 139.754,26.016 140.594,25.392C141.458,24.768 141.89,23.952 141.89,22.944C141.89,21.84 141.386,20.976 140.378,20.352C139.394,19.728 137.822,19.2 135.662,18.768C133.238,18.288 131.318,17.424 129.902,16.176C128.486,14.904 127.778,13.248 127.778,11.208C127.778,9.12 128.594,7.452 130.226,6.204C131.858,4.932 133.994,4.296 136.634,4.296C141.434,4.296 144.626,6.456 146.21,10.776L142.466,12.936C141.458,9.96 139.478,8.472 136.526,8.472C135.326,8.472 134.318,8.7 133.502,9.156C132.71,9.588 132.314,10.236 132.314,11.1ZM84.045,44.117L84.951,44.805L93.272,51.117L101.592,44.805L102.499,44.117L103.405,44.805L111.722,51.115L119.969,44.808L120.87,44.12L121.778,44.798L130.254,51.128L138.729,44.798L139.627,44.128L140.525,44.798L149.898,51.798L148.103,54.202L139.627,47.872L131.151,54.202L130.254,54.872L129.356,54.202L120.891,47.88L112.637,54.192L111.729,54.886L110.819,54.195L102.499,47.883L94.178,54.195L93.272,54.883L92.365,54.195L84.045,47.883L75.724,54.195L74.817,54.883L73.911,54.195L65.59,47.883L57.27,54.195L56.363,54.883L55.457,54.195L47.136,47.883L38.815,54.195L37.909,54.883L37.002,54.195L28.682,47.883L20.361,54.195L19.455,54.883L18.548,54.195L10.227,47.883L1.907,54.195L0.094,51.805L9.321,44.805L10.227,44.117L11.134,44.805L19.455,51.117L27.775,44.805L28.682,44.117L29.588,44.805L37.909,51.117L46.229,44.805L47.136,44.117L48.042,44.805L56.363,51.117L64.684,44.805L65.59,44.117L66.497,44.805L74.817,51.117L83.138,44.805L84.045,44.117ZM84.951,49.805L84.045,49.117L83.138,49.805L74.817,56.117L66.497,49.805L65.59,49.117L64.684,49.805L56.363,56.117L48.042,49.805L47.136,49.117L46.229,49.805L37.909,56.117L29.588,49.805L28.682,49.117L27.775,49.805L19.455,56.117L11.134,49.805L10.227,49.117L9.321,49.805L0.094,56.805L1.907,59.195L10.227,52.883L18.548,59.195L19.455,59.883L20.361,59.195L28.682,52.883L37.002,59.195L37.909,59.883L38.815,59.195L47.136,52.883L55.457,59.195L56.363,59.883L57.27,59.195L65.59,52.883L73.911,59.195L74.817,59.883L75.724,59.195L84.045,52.883L92.365,59.195L93.272,59.883L94.178,59.195L102.499,52.883L110.819,59.195L111.729,59.886L112.637,59.192L120.891,52.88L129.356,59.202L130.254,59.872L131.151,59.202L139.627,52.872L148.103,59.202L149.898,56.798L140.525,49.798L139.627,49.128L138.729,49.798L130.254,56.128L121.778,49.798L120.87,49.12L119.969,49.808L111.722,56.115L103.405,49.805L102.499,49.117L101.592,49.805L93.272,56.117L84.951,49.805Z" style="fill:rgb(43,72,254);"/>
    <circle cx="19.24" cy="18.24" r="18.24" style="fill:url(#_Linear1);"/>
    <defs>
        <linearGradient id="_Linear1" x1="0" y1="0" x2="1" y2="0" gradientUnits="userSpaceOnUse" gradientTransform="matrix(2.23376e-15,36.48,-36.48,2.23376e-15,19.24,0)"><stop offset="0" style="stop-color:rgb(242,5,116);stop-opacity:1"/><stop offset="0.17" style="stop-color:rgb(242,5,116);stop-opacity:1"/><stop offset="0.72" style="stop-color:rgb(245,120,107);stop-opacity:1"/><stop offset="1" style="stop-color:rgb(245,120,107);stop-opacity:1"/></linearGradient>
    </defs>
</svg>
